<svg xmlns="http://www.w3.org/2000/svg" viewBox="0 0 253.31 498.54"><defs><style>.cls-1{fill:#e6e7e8;}.cls-2{fill:#a7a9ac;}.cls-3,.cls-5{fill:none;stroke:#a7a9ac;stroke-miterlimit:10;}.cls-4{fill:#f1f2f2;}.cls-5{stroke-width:0.25px;}.cls-6{fill:#808285;}</style></defs><title>Asset 3</title><g id="Layer_2" data-name="Layer 2"><g id="Phones"><g id="Galaxy_S3" data-name="Galaxy S3"><path class="cls-1" d="M252.48,42.4a38.79,38.79,0,0,0-25.81-36.6C221,2.52,178.76,0,127.58,0,86.94,0,52,1.59,36.44,3.88c-1.55.23-2.91.47-4.06.7l-.1,0c-.94.22-1.87.47-2.77.75a.2.2,0,0,0-.11,0,38.79,38.79,0,0,0-27,37c0,.08,0,.16,0,.25h0V456.4h0a38.78,38.78,0,0,0,25.8,36.34c5.71,3.27,47.91,5.79,99.09,5.79,40.64,0,75.61-1.59,91.14-3.88a37,37,0,0,0,4.06-.7l.1,0a22,22,0,0,0,2.77-.75.2.2,0,0,0,.11,0,38.79,38.79,0,0,0,27-36.75h0V42.64h0C252.48,42.56,252.48,42.48,252.48,42.4Zm-8.79,406.69H11.18V41.23H243.69Z"/><rect class="cls-2" x="99.12" y="10.63" width="56.07" height="6.6" rx="2.73" ry="2.73"/><circle class="cls-2" cx="168.75" cy="22.72" r="4.4"/><circle class="cls-2" cx="181.21" cy="22.72" r="4.4"/><circle class="cls-2" cx="206.13" cy="22.72" r="6.6"/><path class="cls-3" d="M156.6,472.72a2.53,2.53,0,0,0-.86-.22H102a2.56,2.56,0,0,0-1,.23c-2.2,1-2.49,5.09-.64,9.08,1.59,3.43,4.23,5.68,6.35,5.61H151c2.09,0,4.68-2.24,6.24-5.61C159.09,477.81,158.8,473.74,156.6,472.72Z"/><path class="cls-4" d="M2.38,78a1.82,1.82,0,0,0-.55-.09A1.84,1.84,0,0,0,0,79.75v86.15a1.84,1.84,0,0,0,1.84,1.84,1.82,1.82,0,0,0,.55-.09Z"/><line class="cls-5" x1="2.38" y1="77.21" x2="2.38" y2="167.65"/><path class="cls-4" d="M252.23,107.39a1,1,0,0,0-.58.19V153a1,1,0,0,0,.58.19,1.07,1.07,0,0,0,1.07-1.07V108.46A1.07,1.07,0,0,0,252.23,107.39Z"/><line class="cls-5" x1="251.65" y1="107.39" x2="251.65" y2="153.16"/><circle class="cls-6" cx="106.58" cy="13.93" r="0.61"/><circle class="cls-6" cx="109.56" cy="13.93" r="0.61"/><circle class="cls-6" cx="112.53" cy="13.93" r="0.61"/><circle class="cls-6" cx="115.51" cy="13.93" r="0.61"/><circle class="cls-6" cx="118.49" cy="13.93" r="0.61"/><circle class="cls-6" cx="121.47" cy="13.93" r="0.61"/><circle class="cls-6" cx="124.45" cy="13.93" r="0.61"/><circle class="cls-6" cx="127.43" cy="13.93" r="0.61"/><circle class="cls-6" cx="130.41" cy="13.93" r="0.61"/><circle class="cls-6" cx="133.39" cy="13.93" r="0.61"/><circle class="cls-6" cx="136.37" cy="13.93" r="0.61"/><circle class="cls-6" cx="139.35" cy="13.93" r="0.61"/><circle class="cls-6" cx="142.33" cy="13.93" r="0.61"/><circle class="cls-6" cx="145.31" cy="13.93" r="0.61"/><circle class="cls-6" cx="148.29" cy="13.93" r="0.61"/></g></g></g></svg>