<svg xmlns="http://www.w3.org/2000/svg" viewBox="0 0 250.49 525.4"><defs><style>.cls-1{fill:#f1f2f2;}.cls-2{fill:#e6e7e8;}.cls-3{fill:#a7a9ac;}.cls-4{fill:none;stroke:#a7a9ac;stroke-miterlimit:10;stroke-width:0.25px;}</style></defs><title>Asset 2</title><g id="Layer_2" data-name="Layer 2"><g id="Phones"><g id="IPhone_5S" data-name="IPhone 5S"><path class="cls-1" d="M2.47,74.78a1.49,1.49,0,0,0-1-.37A1.51,1.51,0,0,0,0,75.91V96.82a1.51,1.51,0,0,0,1.5,1.5,1.49,1.49,0,0,0,1-.37Z"/><path class="cls-1" d="M2.47,124.41a1.23,1.23,0,0,0-2.21.75v16a1.23,1.23,0,0,0,2.21.75Z"/><path class="cls-1" d="M2.47,168.07a1.1,1.1,0,0,0-2.08.51v16.13a1.1,1.1,0,0,0,2.08.51Z"/><path class="cls-1" d="M208.58,2.5a1.94,1.94,0,0,0,.08-.52,2,2,0,0,0-2-2H170.38a2,2,0,0,0-2,2,1.94,1.94,0,0,0,.08.52Z"/><path class="cls-2" d="M212.62,2.5H40.35A37.87,37.87,0,0,0,2.47,40.37V487.53A37.87,37.87,0,0,0,40.35,525.4H212.62a37.87,37.87,0,0,0,37.87-37.87V40.37A37.87,37.87,0,0,0,212.62,2.5Zm22,448.58a3.05,3.05,0,0,1-3.05,3.05H21.09A3.05,3.05,0,0,1,18,451.08V77.62a3.05,3.05,0,0,1,3.05-3.05H231.6a3.05,3.05,0,0,1,3.05,3.05Z"/><circle class="cls-3" cx="126.48" cy="28.29" r="4.9"/><circle class="cls-3" cx="92.73" cy="47.93" r="3.34"/><rect class="cls-3" x="105.91" y="45.33" width="41.28" height="5.44" rx="2.61" ry="2.61"/><path class="cls-3" d="M126.14,465.52a22.32,22.32,0,1,0,22.32,22.32A22.32,22.32,0,0,0,126.14,465.52Zm0,42.07a19.75,19.75,0,1,1,19.75-19.75A19.75,19.75,0,0,1,126.14,507.58Z"/><line class="cls-4" x1="208.66" y1="2.5" x2="168.4" y2="2.5"/><line class="cls-4" x1="2.47" y1="74.41" x2="2.47" y2="97.95"/><line class="cls-4" x1="2.47" y1="124.46" x2="2.47" y2="141.92"/><line class="cls-4" x1="2.47" y1="167.45" x2="2.47" y2="185.23"/></g></g></g></svg>