<svg xmlns="http://www.w3.org/2000/svg" viewBox="0 0 19.59 24.99"><defs><style>.cls-1{fill:#818181;stroke:#818181;stroke-miterlimit:10;stroke-width:0.25px;}</style></defs><title>Asset 2</title><g id="Layer_2" data-name="Layer 2"><g id="Layer_1-2" data-name="Layer 1"><path class="cls-1" d="M17.53,10a3,3,0,0,0-.75.14,2.09,2.09,0,0,0-3.4-1.46,2.09,2.09,0,0,0-2-1.37,2.59,2.59,0,0,0-1.49.47V2.36A2,2,0,0,0,8,.13,2.06,2.06,0,0,0,6,2.36L6,15l-1.72-1.8A2.44,2.44,0,0,0,.82,16.59s1.57,1.75,3.79,4l.36.36c2.1,2.11,3.92,3.94,7.56,3.94s5-1.89,6-3.82.94-9,.94-9.29A1.91,1.91,0,0,0,17.53,10Zm.19,10.68C16.81,22.46,15.79,24,12.53,24s-4.88-1.62-6.92-3.68l-.36-.36C3,17.73,1.5,16,1.47,16a1.55,1.55,0,1,1,2.17-2.2l2.48,2.61a.45.45,0,0,0,.77-.31l0-13.71C6.87,1.74,7.16,1,8,1S9,2,9,2.36v8.35a.45.45,0,0,0,.89,0V9.51a1.39,1.39,0,0,1,1.49-1.34,1.19,1.19,0,0,1,1.19,1.19V11a.45.45,0,0,0,.89,0v-.75a1.19,1.19,0,1,1,2.38,0V12.2a.45.45,0,0,0,.89,0V11.06a2.14,2.14,0,0,1,.74-.2,1,1,0,0,1,1,.89C18.57,13.75,18.41,19.25,17.72,20.64Z"/></g></g></svg>